<svg xmlns="http://www.w3.org/2000/svg" width="372.305" height="240.178" viewBox="0 0 372.305 240.178">
  <defs>
    <style>
      .cls-1 {
        fill: #fff;
      }

      .cls-2 {
        fill: #e8582d;
      }

      .cls-2, .cls-3 {
        fill-rule: evenodd;
      }

      .cls-3 {
        fill: #ff7c45;
      }
    </style>
  </defs>
  <g id="Logo" transform="translate(0 0)">
    <g id="Group_47794" data-name="Group 47794" transform="translate(0 0)">
      <path id="Path_9373" data-name="Path 9373" class="cls-1" d="M545.424,486.126l-.008,7.826h-.393c-1.059-2.518-8.211-9.156-20.408-9.172a32.592,32.592,0,0,0-23.236,9.792,35.957,35.957,0,0,1,12.34,17.875,16.424,16.424,0,0,1,15.122-9.368c9.013.008,17.1,6.253,17.088,17.527s-8.106,17.5-17.126,17.481a16.522,16.522,0,0,1-14.23-7.773,33.961,33.961,0,0,1-11.554,17.852,32.676,32.676,0,0,0,21.519,8.219c12.2.015,19.364-6.609,20.43-9.126h.393l-.008,7.826,20.551.023.076-68.95Z" transform="translate(-310.415 -333.673)"/>
      <path id="Path_9374" data-name="Path 9374" class="cls-1" d="M632.742,536.714A16.943,16.943,0,0,1,626.209,538c-8.884-.008-16.438-6.646-16.423-17.391.015-10.472,7.576-17.1,16.461-17.088a16.943,16.943,0,0,1,6.533,1.293l.023-19.288a37.894,37.894,0,0,0-6.533-.575c-18.434-.023-36.747,12.287-36.77,35.628-.023,23.606,18.26,35.953,36.694,35.976a36.45,36.45,0,0,0,6.533-.582Z" transform="translate(-331.906 -333.714)"/>
      <g id="Group_47792" data-name="Group 47792" transform="translate(290.115 230.976)">
        <path id="Path_9375" data-name="Path 9375" class="cls-1" d="M632.518,590.41l4.809.008v.718l-4.007-.008-.008,3.471,3.614.008v.681l-3.614-.008-.008,4.257h-.794Z" transform="translate(-632.51 -590.41)"/>
        <path id="Path_9376" data-name="Path 9376" class="cls-1" d="M649.257,590.42h.794l-.008,9.126h-.794Z" transform="translate(-636.593 -590.412)"/>
        <path id="Path_9377" data-name="Path 9377" class="cls-1" d="M663.048,591.2H660.53v-.756l5.837.007v.756h-2.518l-.007,8.37h-.794Z" transform="translate(-639.344 -590.417)"/>
        <path id="Path_9378" data-name="Path 9378" class="cls-1" d="M694.416,590.48l3.652,9.126h-.862l-.923-2.329-4.521-.008-.93,2.329h-.862l3.675-9.119Zm1.58,6.049-1.958-4.99-1.974,4.983Z" transform="translate(-646.523 -590.427)"/>
        <path id="Path_9379" data-name="Path 9379" class="cls-1" d="M710.66,590.49h2.851a2.923,2.923,0,1,1,0,5.837h-2.057v3.289h-.794Zm2.783,5.081a2.065,2.065,0,0,0,2.329-2.17,2.043,2.043,0,0,0-2.321-2.147h-1.989l-.008,4.317Z" transform="translate(-651.569 -590.429)"/>
        <path id="Path_9380" data-name="Path 9380" class="cls-1" d="M728.81,590.51h2.85a2.923,2.923,0,1,1,0,5.837H729.6v3.289h-.794Zm2.79,5.081a2.065,2.065,0,0,0,2.329-2.17,2.043,2.043,0,0,0-2.321-2.147h-1.989l-.008,4.318Z" transform="translate(-655.996 -590.434)"/>
      </g>
      <path id="Path_9381" data-name="Path 9381" class="cls-1" d="M348.99,423.258c.023-23.341,18.336-35.651,36.77-35.628,12.2.015,22.933,5.6,29.685,17L400.58,414.3c-3.312-4.514-8.211-8.1-14.843-8.106-8.884-.008-16.453,6.616-16.461,17.088-.015,10.744,7.538,17.383,16.423,17.391,6.631.008,11.538-3.569,14.858-8.075L415.4,442.29c-6.775,11.13-17.519,16.952-29.723,16.937C367.25,459.211,348.967,446.864,348.99,423.258Z" transform="translate(-273.25 -309.979)"/>
      <path id="Path_9382" data-name="Path 9382" class="cls-1" d="M348.88,520.988c.023-23.341,18.336-35.651,36.77-35.628,12.2.015,22.933,5.6,29.685,17l-14.865,9.663c-3.312-4.514-8.211-8.1-14.843-8.106-8.884-.007-16.453,6.609-16.461,17.088-.015,10.745,7.538,17.383,16.423,17.391,6.631.008,11.538-3.569,14.858-8.075l14.843,9.693c-6.775,11.13-17.519,16.952-29.723,16.937C367.14,556.949,348.857,544.594,348.88,520.988Z" transform="translate(-273.223 -333.814)"/>
      <path id="Path_9383" data-name="Path 9383" class="cls-1" d="M632.852,435.244a16.94,16.94,0,0,1-6.533,1.285c-8.884-.008-16.438-6.646-16.423-17.391.015-10.472,7.576-17.1,16.461-17.088a16.942,16.942,0,0,1,6.533,1.293l.023-19.288a37.888,37.888,0,0,0-6.533-.575c-18.434-.023-36.747,12.287-36.77,35.628-.023,23.606,18.26,35.953,36.694,35.976a36.45,36.45,0,0,0,6.533-.582Z" transform="translate(-331.933 -308.967)"/>
      <path id="Path_9384" data-name="Path 9384" class="cls-1" d="M693.989,449.258c-9.814-.008-16.582,4.227-20.43,10.056l.771-126.082-20.551-.023-.839,186.284,20.551.023.038-37c.008-8.62,4.393-14.979,12.748-14.971,8.484.008,12.854,6.382,12.847,15l-.038,37,20.551.023L719.682,479C719.705,457.9,707.91,449.274,693.989,449.258Z" transform="translate(-347.378 -296.707)"/>
      <path id="Path_9385" data-name="Path 9385" class="cls-1" d="M431.59,420.964c.03-24,17.277-35.787,32.921-35.764,12.2.015,19.357,6.654,20.408,9.172h.4l.008-7.826,20.551.023-.076,68.95-20.551-.023.008-7.826h-.4c-1.066,2.518-8.234,9.141-20.43,9.126C448.792,456.789,431.567,444.963,431.59,420.964Zm37.11,17.549c9.013.008,17.111-6.215,17.126-17.481s-8.068-17.512-17.088-17.527c-8.748-.008-16.846,6.344-16.861,17.489C451.869,432.124,459.952,438.5,468.7,438.514Z" transform="translate(-293.394 -309.386)"/>
      <path id="Path_9386" data-name="Path 9386" class="cls-1" d="M248.82,520.1c.03-24,17.277-35.787,32.921-35.764,12.2.015,19.357,6.654,20.408,9.172h.4l.008-7.826,20.551.023-.076,68.95-20.551-.023.008-7.826h-.4c-1.066,2.518-8.234,9.142-20.43,9.126C266.022,555.921,248.8,544.1,248.82,520.1Zm37.11,17.542c9.013.008,17.111-6.215,17.126-17.481s-8.068-17.512-17.088-17.527c-8.748-.008-16.846,6.344-16.861,17.489S277.182,537.638,285.93,537.646Z" transform="translate(-248.82 -333.565)"/>
      <path id="Path_9387" data-name="Path 9387" class="cls-1" d="M541.09,429.662l.038-31.2-10.208-.008.015-16.188,10.208.008.015-14.086,20.551.023-.015,14.086,14.449.015-.015,16.188-14.449-.015-.03,27.908c-.008,3.425,1.981,7.108,8.211,7.115a22.692,22.692,0,0,0,6.495-1.043L576.34,448c-2.654,2.631-8.491,3.546-13.262,3.539C550.344,451.529,541.075,445.329,541.09,429.662Z" transform="translate(-317.619 -305.238)"/>
      <path id="Path_9388" data-name="Path 9388" class="cls-1" d="M430.24,519.734c.03-25.08,19.878-38.237,39.152-38.214s39.091,13.217,39.069,38.3-19.878,38.237-39.152,38.214S430.21,544.814,430.24,519.734ZM469.324,538.2c9.5.008,17.436-7.062,17.451-18.4s-7.917-18.427-17.406-18.442-17.436,7.062-17.451,18.4S459.827,538.191,469.324,538.2Z" transform="translate(-293.065 -332.878)"/>
      <g id="Group_47793" data-name="Group 47793" transform="translate(253.66)">
        <path id="Path_9389" data-name="Path 9389" class="cls-2" d="M604.317,335.9,587.3,351.642s-3.5,5.573-.522,8.6,10.419-1.013,15.047-8.2c0,0,20.468,6.737,27.7,3.97,7.289-2.729,14.608-4.862,29.587-25.67,0,0,7.372-.824,10.389-4.212,3.032-3.334,1.27-21.511-9.323-31.333-10.548-9.837-25.859-6.888-25.859-6.888l-.355-1.467s-2.525-1.1-5.618,1.4l.28,1.232s-17.572,5.641-23.107,15.455c-5.52,9.875-1.2,31.371-1.2,31.371Z" transform="translate(-584.611 -285.242)"/>
        <path id="Path_9390" data-name="Path 9390" class="cls-1" d="M604.631,336.319l-16.937,15.667c-.446.854-2.752,5.028-.567,7.3.136.113.272.219.408.333.945.575,2.344.491,3.985-.121a17.136,17.136,0,0,0,5.573-3.826,26.082,26.082,0,0,0,3.607-4.431l.408-.635.733.227c.045-.015,20.12,6.593,27.054,4.023l.809-.355c6.888-2.556,14.094-5.21,28.317-25.02l.25-.333.385-.068c.045-.015,7.085-.786,9.83-3.879,1.55-1.709,1.6-8.083-.476-15.062a33.749,33.749,0,0,0-8.779-14.918c-10.185-9.489-25.035-6.684-25.035-6.684l-.907.181-.454-1.792a4.985,4.985,0,0,0-3.69,1.051l.3,1.437-.817.31c-.045.015-17.2,5.52-22.532,15.024-5.376,9.512-1.127,30.623-1.157,30.683l.113.522Zm-18.321,14.313,16.612-15.41c-.612-3.425-3.735-22.237,1.437-31.432,5.013-8.892,19.266-14.4,22.835-15.674l-.2-.953.454-.348c3.524-2.881,6.525-1.58,6.525-1.58l.469.212.287,1.081c3.463-.469,16.438-1.467,25.821,7.259a35.666,35.666,0,0,1,9.3,15.773c2.23,7.644,1.974,14.8.061,16.975-2.8,3.108-8.93,4.159-10.578,4.423-14.381,19.954-21.852,22.744-28.921,25.36l-.87.318c-6.729,2.556-23.961-2.593-27.628-3.743a25.728,25.728,0,0,1-3.478,4.189,18.768,18.768,0,0,1-6.253,4.242c-2.185.832-4.212.854-5.678-.106a2.807,2.807,0,0,1-.741-.582c-3.508-3.584.37-9.731.37-9.731Z" transform="translate(-584.298 -284.935)"/>
        <path id="Path_9391" data-name="Path 9391" class="cls-3" d="M609.842,335.9l-.121.091c12.052-2.132,45.866-7.75,54.917-5.641.091-.03,7.418-.839,10.389-4.212,3.032-3.334,1.27-21.511-9.323-31.333-10.548-9.837-25.859-6.888-25.859-6.888l-.355-1.467s-2.525-1.1-5.618,1.4l.28,1.232s-17.572,5.641-23.107,15.455c-5.52,9.867-1.2,31.364-1.2,31.364Z" transform="translate(-590.135 -285.245)"/>
        <path id="Path_9392" data-name="Path 9392" class="cls-2" d="M665.89,329.9a31.412,31.412,0,0,1,6.858.454c.091-.03,7.418-.839,10.389-4.212,3.032-3.334,1.27-21.511-9.323-31.333-10.548-9.837-25.859-6.888-25.859-6.888l-.355-1.467s-2.526-1.1-5.618,1.4l.28,1.232s-.28.083-.741.234c4.484.023,12.173,4.6,15.092,8.567,2.858,3.947,9.277,32.014,9.277,32.014Z" transform="translate(-598.253 -285.245)"/>
        <path id="Path_9393" data-name="Path 9393" class="cls-1" d="M646.607,286.957l-.015-.045a4.928,4.928,0,0,0-3.523.945c.25-.023.6-.038.938-.091a12.032,12.032,0,0,0,2.6-.809Zm1.754-1.051.484,2.034-.65.355a12.232,12.232,0,0,1-3.894,1.369,7.683,7.683,0,0,1-2.321.06l-.733-.076-.476-2.5.454-.348c3.523-2.881,6.525-1.58,6.525-1.58l.469.212Z" transform="translate(-598.07 -284.933)"/>
        <path id="Path_9394" data-name="Path 9394" class="cls-3" d="M587.932,372.257c-2.238,2.125-3.229,6.45-1.134,8.6,2.987,3.04,10.419-1.013,15.047-8.2-3.38-1.036-9.95-3.667-13.913-.393Z" transform="translate(-584.627 -305.842)"/>
        <path id="Path_9395" data-name="Path 9395" class="cls-1" d="M586.9,371.3l.061-.121c3.977-3.229,9.86-1.346,13.64-.136l2.412.726-.681,1.081a25.772,25.772,0,0,1-3.886,4.824,19.639,19.639,0,0,1-6.253,4.242c-2.185.832-4.212.854-5.678-.106a2.8,2.8,0,0,1-.741-.582l-.061-.03a6.088,6.088,0,0,1-1.285-5.1,8.991,8.991,0,0,1,2.473-4.8Zm1.338,1.361a7.024,7.024,0,0,0-1.883,3.743,4.175,4.175,0,0,0,.779,3.471h0c.136.113.272.219.408.333.945.575,2.344.491,3.985-.121a18.053,18.053,0,0,0,5.573-3.826,23.368,23.368,0,0,0,2.9-3.4c-3.38-1.036-8.627-2.7-11.765-.2Z" transform="translate(-584.31 -305.531)"/>
        <path id="Path_9396" data-name="Path 9396" class="cls-2" d="M648.068,287.783l-.31-1.331s-2.526-1.1-5.618,1.4l.28,1.232a9.474,9.474,0,0,0,5.648-1.3Z" transform="translate(-598.404 -285.245)"/>
      </g>
    </g>
  </g>
</svg>
